<svg xmlns="http://www.w3.org/2000/svg" xml:space="preserve" width="1200" height="1200" viewBox="0 0 317.5 317.5"><defs><style>.bg{fill:#e9ddaf}@media(prefers-color-scheme:dark){.bg{fill:#3d2b1f!important}}</style></defs><path d="M0 0h317.5v317.5H0z" class="bg" style="stroke-width:6.15741"/><g style="fill:#c87137"><path d="M212.035 238.502v157.352c4.46-.24 8.63-.6 12.223-1.08 86.484-11.527 155.527-78.942 169.114-165.127 1.062-6.735 1.66-12.922 2-17.604H238.494a26.46 26.46 135 0 0-26.458 26.459M.579 212.043c.24 4.727.613 9.15 1.117 12.933 11.748 88.208 81.592 158.051 169.8 169.8 3.889.518 8.452.897 13.328 1.136v-157.41a26.46 26.46 45 0 0-26.458-26.459zM184.824 1.516C76.618 20.732 12.88 88.378 1.698 172.214c-.493 3.7-.86 8.01-1.102 12.618h157.77a26.46 26.46 135 0 0 26.458-26.459zM212.035 0v26.082a158.75 158.75 45 0 0 158.75 158.75h25.063V26.458C395.848 11.846 384.002 0 369.39 0H214.884z" style="fill:#c87137;stroke-width:8.75159" transform="matrix(.51233 0 0 .5115 57.2 57.496)"/></g></svg>